# xmcd CD database file
#
# Track frame offsets:
#	150
#	24823
#	80755
#	104806
#	115987
#	130578
#	151299
#	185003
#	202570
#	236674
#	256931
#	275247
#
# Disc length: 3949 seconds
#
# Revision: 1
# Processed by: cddbd v1.5.1PL0 Copyright (c) Steve Scherf et al.
# Submitted via: CDex 1.51
#
DISCID=a00f6b0c
DTITLE=Grapevine Blues - The Best Of The Grapevine Blues Band - So Far!
DYEAR=2004
DGENRE=Blues
TTITLE0=This One's For Suzie
TTITLE1=Red House
TTITLE2=Henk's Funk
TTITLE3=Grapevine
TTITLE4=Dusty Road
TTITLE5=Cross Roads Blues
TTITLE6=Loser
TTITLE7=Libido Blues
TTITLE8=Bad From The Very Start
TTITLE9=Cross Roads Blues - reprise
TTITLE10=Funk It Up
TTITLE11=After The Rain
EXTD=YEAR: 2004
EXTT0=
EXTT1=
EXTT2=
EXTT3=
EXTT4=
EXTT5=
EXTT6=
EXTT7=
EXTT8=
EXTT9=
EXTT10=
EXTT11=
PLAYORDER=
